<svg xmlns="http://www.w3.org/2000/svg" xmlns:xlink="http://www.w3.org/1999/xlink" id="Layer_1" data-name="Layer 1"><defs><style>.cls-1{fill:url(#linear-gradient);}.cls-2{fill:#fff;}</style><linearGradient id="linear-gradient" x1="134.25" y1="268.49" x2="134.25" gradientUnits="userSpaceOnUse"><stop offset="0" stop-color="#3832a7"/><stop offset="1" stop-color="#736dd5"/></linearGradient></defs><rect class="cls-1" width="268.49" height="268.49" rx="40"/><path class="cls-2" d="M336.7,448.41a13.93,13.93,0,0,0-10.19-4.3H312V433.23a18.18,18.18,0,0,0-18.12-18.13h-7.25a18.2,18.2,0,0,0-18.13,18.13v10.88H225V433.23a18.2,18.2,0,0,0-18.13-18.13h-7.25a18.18,18.18,0,0,0-18.12,18.13v10.88H167a14.69,14.69,0,0,0-14.5,14.5v145A14.7,14.7,0,0,0,167,618.1H326.5A14.7,14.7,0,0,0,341,603.6v-145a13.92,13.92,0,0,0-4.3-10.2ZM283,433.23a3.49,3.49,0,0,1,3.63-3.63h7.25a3.48,3.48,0,0,1,3.62,3.63v32.62a3.48,3.48,0,0,1-3.62,3.63h-7.25a3.49,3.49,0,0,1-3.63-3.63Zm-87,0a3.49,3.49,0,0,1,3.62-3.63h7.25a3.48,3.48,0,0,1,3.62,3.63v32.62a3.48,3.48,0,0,1-3.62,3.63h-7.25a3.49,3.49,0,0,1-3.62-3.63ZM326.5,603.6H167v-116H326.5Zm0,0" transform="translate(-112.51 -382.35)"/><path class="cls-2" d="M228.18,530.77a12.53,12.53,0,0,0-2.8-3.15,13.06,13.06,0,0,0-8.23-2.88,14.67,14.67,0,0,0-7.19,1.64,13.57,13.57,0,0,0-4.79,4.39,19.22,19.22,0,0,0-2.68,6.27,31.26,31.26,0,0,0-.84,7.28,29.08,29.08,0,0,0,.84,7,18.82,18.82,0,0,0,2.68,6.11,13.65,13.65,0,0,0,4.79,4.35,14.67,14.67,0,0,0,7.19,1.64q5.76,0,9-3.52a16.22,16.22,0,0,0,4-9.26h12.15a29,29,0,0,1-2.48,9.66,23.09,23.09,0,0,1-5.27,7.35,22.46,22.46,0,0,1-7.67,4.64,28.23,28.23,0,0,1-9.67,1.59,29.19,29.19,0,0,1-11.78-2.27,25.34,25.34,0,0,1-8.83-6.27,27.86,27.86,0,0,1-5.51-9.39,34.42,34.42,0,0,1-1.92-11.62A35.6,35.6,0,0,1,191,532.45a28.5,28.5,0,0,1,5.51-9.55,25.37,25.37,0,0,1,8.83-6.39,30.71,30.71,0,0,1,20.69-1,24.2,24.2,0,0,1,7.51,4,21.34,21.34,0,0,1,5.47,6.43,23,23,0,0,1,2.72,8.79H229.61A10.3,10.3,0,0,0,228.18,530.77Z" transform="translate(-112.51 -382.35)"/><path class="cls-2" d="M292.73,568.24q-6.47,5.64-17.9,5.63t-17.93-5.59q-6.36-5.6-6.35-17.25V515.55h12.54V551a25.49,25.49,0,0,0,.4,4.55,9,9,0,0,0,1.68,3.95,9.18,9.18,0,0,0,3.55,2.8,14.45,14.45,0,0,0,6.11,1.08q6.72,0,9.27-3c1.7-2,2.56-5.12,2.56-9.38V515.55H299.2V551Q299.2,562.61,292.73,568.24Z" transform="translate(-112.51 -382.35)"/></svg>
