<svg id="Layer_1" data-name="Layer 1" xmlns="http://www.w3.org/2000/svg" xmlns:xlink="http://www.w3.org/1999/xlink" viewBox="0 0 795.91 268.49"><defs><style>.cls-1{fill:url(#linear-gradient);}.cls-2{fill:#fff;}.cls-3{fill:url(#linear-gradient-2);}.cls-4{fill:url(#linear-gradient-3);}.cls-5{fill:url(#linear-gradient-4);}.cls-6{fill:url(#linear-gradient-5);}.cls-7{fill:url(#linear-gradient-6);}.cls-8{fill:url(#linear-gradient-7);}.cls-9{fill:url(#linear-gradient-8);}</style><linearGradient id="linear-gradient" x1="134.25" y1="268.49" x2="134.25" gradientUnits="userSpaceOnUse"><stop offset="0" stop-color="#3832a7"/><stop offset="1" stop-color="#736dd5"/></linearGradient><linearGradient id="linear-gradient-2" x1="451.56" y1="556.18" x2="451.56" y2="466" xlink:href="#linear-gradient"/><linearGradient id="linear-gradient-3" x1="530.58" y1="555.82" x2="530.58" y2="490.14" xlink:href="#linear-gradient"/><linearGradient id="linear-gradient-4" x1="586.35" y1="554.85" x2="586.35" y2="473.12" xlink:href="#linear-gradient"/><linearGradient id="linear-gradient-5" x1="643.45" y1="555.82" x2="643.45" y2="490.14" xlink:href="#linear-gradient"/><linearGradient id="linear-gradient-6" x1="713.16" y1="554.25" x2="713.16" y2="468.05" xlink:href="#linear-gradient"/><linearGradient id="linear-gradient-7" x1="793.68" y1="556.18" x2="793.68" y2="468.05" xlink:href="#linear-gradient"/><linearGradient id="linear-gradient-8" x1="876.67" y1="576.1" x2="876.67" y2="490.14" xlink:href="#linear-gradient"/></defs><rect class="cls-1" width="268.49" height="268.49" rx="40"/><path class="cls-2" d="M336.7,448.41a13.93,13.93,0,0,0-10.19-4.3H312V433.23a18.18,18.18,0,0,0-18.12-18.13h-7.25a18.2,18.2,0,0,0-18.13,18.13v10.88H225V433.23a18.2,18.2,0,0,0-18.13-18.13h-7.25a18.18,18.18,0,0,0-18.12,18.13v10.88H167a14.69,14.69,0,0,0-14.5,14.5v145A14.7,14.7,0,0,0,167,618.1H326.5A14.7,14.7,0,0,0,341,603.6v-145a13.92,13.92,0,0,0-4.3-10.2ZM283,433.23a3.49,3.49,0,0,1,3.63-3.63h7.25a3.48,3.48,0,0,1,3.62,3.63v32.62a3.48,3.48,0,0,1-3.62,3.63h-7.25a3.49,3.49,0,0,1-3.63-3.63Zm-87,0a3.49,3.49,0,0,1,3.62-3.63h7.25a3.48,3.48,0,0,1,3.62,3.63v32.62a3.48,3.48,0,0,1-3.62,3.63h-7.25a3.49,3.49,0,0,1-3.62-3.63ZM326.5,603.6H167v-116H326.5Zm0,0" transform="translate(-112.51 -382.35)"/><path class="cls-2" d="M228.18,530.77a12.53,12.53,0,0,0-2.8-3.15,13.06,13.06,0,0,0-8.23-2.88,14.67,14.67,0,0,0-7.19,1.64,13.57,13.57,0,0,0-4.79,4.39,19.22,19.22,0,0,0-2.68,6.27,31.26,31.26,0,0,0-.84,7.28,29.08,29.08,0,0,0,.84,7,18.82,18.82,0,0,0,2.68,6.11,13.65,13.65,0,0,0,4.79,4.35,14.67,14.67,0,0,0,7.19,1.64q5.76,0,9-3.52a16.22,16.22,0,0,0,4-9.26h12.15a29,29,0,0,1-2.48,9.66,23.09,23.09,0,0,1-5.27,7.35,22.46,22.46,0,0,1-7.67,4.64,28.23,28.23,0,0,1-9.67,1.59,29.19,29.19,0,0,1-11.78-2.27,25.34,25.34,0,0,1-8.83-6.27,27.86,27.86,0,0,1-5.51-9.39,34.42,34.42,0,0,1-1.92-11.62A35.6,35.6,0,0,1,191,532.45a28.5,28.5,0,0,1,5.51-9.55,25.37,25.37,0,0,1,8.83-6.39,30.71,30.71,0,0,1,20.69-1,24.2,24.2,0,0,1,7.51,4,21.34,21.34,0,0,1,5.47,6.43,23,23,0,0,1,2.72,8.79H229.61A10.3,10.3,0,0,0,228.18,530.77Z" transform="translate(-112.51 -382.35)"/><path class="cls-2" d="M292.73,568.24q-6.47,5.64-17.9,5.63t-17.93-5.59q-6.36-5.6-6.35-17.25V515.55h12.54V551a25.49,25.49,0,0,0,.4,4.55,9,9,0,0,0,1.68,3.95,9.18,9.18,0,0,0,3.55,2.8,14.45,14.45,0,0,0,6.11,1.08q6.72,0,9.27-3c1.7-2,2.56-5.12,2.56-9.38V515.55H299.2V551Q299.2,562.61,292.73,568.24Z" transform="translate(-112.51 -382.35)"/><path class="cls-3" d="M470.46,491.05a19.19,19.19,0,0,0-4.23-4.77,19.58,19.58,0,0,0-5.73-3.2,19.86,19.86,0,0,0-6.7-1.14,22.14,22.14,0,0,0-10.87,2.47,20.45,20.45,0,0,0-7.24,6.64,29.06,29.06,0,0,0-4,9.48,46.86,46.86,0,0,0-1.27,11,43.61,43.61,0,0,0,1.27,10.56,28.42,28.42,0,0,0,4,9.24,20.66,20.66,0,0,0,7.24,6.58,22.14,22.14,0,0,0,10.87,2.47q8.68,0,13.58-5.31t6-14H491.7a43.73,43.73,0,0,1-3.74,14.6,35,35,0,0,1-8,11.11,33.81,33.81,0,0,1-11.59,7,42.39,42.39,0,0,1-14.6,2.42A44.27,44.27,0,0,1,436,552.74a38.17,38.17,0,0,1-13.34-9.48,41.92,41.92,0,0,1-8.33-14.18,52.15,52.15,0,0,1-2.89-17.57,53.94,53.94,0,0,1,2.89-17.93,43,43,0,0,1,8.33-14.42A38.1,38.1,0,0,1,436,469.5a46.26,46.26,0,0,1,31.27-1.45,36.47,36.47,0,0,1,11.35,6,32.39,32.39,0,0,1,8.27,9.72A34.72,34.72,0,0,1,491,497H472.63A15.54,15.54,0,0,0,470.46,491.05Z" transform="translate(-112.51 -382.35)"/><path class="cls-4" d="M505.1,501a20.57,20.57,0,0,1,6.76-6.4,29.42,29.42,0,0,1,9.24-3.44,52.81,52.81,0,0,1,10.32-1,70.43,70.43,0,0,1,9.54.67,29.41,29.41,0,0,1,8.81,2.59,17.39,17.39,0,0,1,6.52,5.38q2.54,3.44,2.53,9.11v32.47a63.59,63.59,0,0,0,.49,8.09,14.52,14.52,0,0,0,1.69,5.8H543.61a24.77,24.77,0,0,1-.78-3,25.93,25.93,0,0,1-.42-3.08,22.27,22.27,0,0,1-9.66,5.91,38.68,38.68,0,0,1-11.35,1.7,30.84,30.84,0,0,1-8.33-1.09,19.1,19.1,0,0,1-6.76-3.38,15.77,15.77,0,0,1-4.53-5.8,19.68,19.68,0,0,1-1.63-8.33,18.18,18.18,0,0,1,1.88-8.75,15.61,15.61,0,0,1,4.82-5.49,21.76,21.76,0,0,1,6.76-3.08,75.29,75.29,0,0,1,7.67-1.63q3.86-.6,7.61-1a47.25,47.25,0,0,0,6.63-1.09,11.59,11.59,0,0,0,4.59-2.11,4.65,4.65,0,0,0,1.57-4.05,9.1,9.1,0,0,0-.9-4.4,6.65,6.65,0,0,0-2.42-2.54,9.74,9.74,0,0,0-3.5-1.21,28.85,28.85,0,0,0-4.28-.3c-3.38,0-6,.73-8,2.17s-3.06,3.87-3.38,7.25H502.09A19.87,19.87,0,0,1,505.1,501ZM539,525.21a25.87,25.87,0,0,1-3.5.91c-1.24.24-2.55.44-3.92.6s-2.74.36-4.1.61a31.23,31.23,0,0,0-3.81,1,11.31,11.31,0,0,0-3.26,1.63,7.8,7.8,0,0,0-2.23,2.6,8.36,8.36,0,0,0-.84,4,8.07,8.07,0,0,0,.84,3.86,6.47,6.47,0,0,0,2.3,2.48,9.68,9.68,0,0,0,3.37,1.26,20.93,20.93,0,0,0,4,.37c3.38,0,6-.56,7.85-1.69a11.37,11.37,0,0,0,4.1-4,13,13,0,0,0,1.63-4.77,32.69,32.69,0,0,0,.3-3.86v-6.4A7.52,7.52,0,0,1,539,525.21Z" transform="translate(-112.51 -382.35)"/><path class="cls-5" d="M606.39,491.83V503.3H593.83v30.91c0,2.89.48,4.83,1.45,5.79s2.9,1.45,5.79,1.45c1,0,1.89,0,2.78-.12a24.65,24.65,0,0,0,2.54-.36v13.28a41.09,41.09,0,0,1-4.83.48c-1.78.08-3.5.12-5.19.12a50.33,50.33,0,0,1-7.55-.54,17.85,17.85,0,0,1-6.28-2.12,11.09,11.09,0,0,1-4.28-4.46,15.92,15.92,0,0,1-1.57-7.61V503.3H566.31V491.83h10.38V473.12h17.14v18.71Z" transform="translate(-112.51 -382.35)"/><path class="cls-6" d="M644.41,503.06a12.08,12.08,0,0,0-6.88,1.87,15,15,0,0,0-4.53,4.83,21,21,0,0,0-2.47,6.52,35.56,35.56,0,0,0-.73,7.06,34,34,0,0,0,.73,6.88,21.32,21.32,0,0,0,2.35,6.34,13.62,13.62,0,0,0,4.41,4.65,12.07,12.07,0,0,0,6.76,1.81q6.15,0,9.48-3.44a16.28,16.28,0,0,0,4.16-9.24h16.54q-1.69,12.43-9.66,19t-20.4,6.52a34.18,34.18,0,0,1-12.86-2.36,28.54,28.54,0,0,1-10-6.58A29.77,29.77,0,0,1,615,536.8a34.92,34.92,0,0,1-2.3-12.85,41.89,41.89,0,0,1,2.11-13.47A30.3,30.3,0,0,1,621,499.74a28.49,28.49,0,0,1,10-7.06,34,34,0,0,1,13.52-2.54,39.46,39.46,0,0,1,10.69,1.45,28.77,28.77,0,0,1,9.17,4.41,22.78,22.78,0,0,1,9.48,17.8H657.09Q655.4,503.06,644.41,503.06Z" transform="translate(-112.51 -382.35)"/><path class="cls-7" d="M701,468.05v32.48h.36a19.79,19.79,0,0,1,8.33-7.91,22.49,22.49,0,0,1,9.9-2.48A29.07,29.07,0,0,1,730.91,492a16.66,16.66,0,0,1,6.94,5.19,20.17,20.17,0,0,1,3.56,8.08,50.62,50.62,0,0,1,1,10.57v38.39H725.29V519q0-7.72-2.41-11.53t-8.57-3.81q-7,0-10.14,4.17T701,521.53v32.72H683.88v-86.2Z" transform="translate(-112.51 -382.35)"/><path class="cls-8" d="M820.66,547.67q-9.78,8.51-27,8.51-17.5,0-27.1-8.45t-9.6-26.08v-53.6h19v53.6a39.2,39.2,0,0,0,.6,6.88,13.39,13.39,0,0,0,7.91,10.2,21.77,21.77,0,0,0,9.24,1.63q10.14,0,14-4.52t3.86-14.19v-53.6h19v53.6Q830.44,539.16,820.66,547.67Z" transform="translate(-112.51 -382.35)"/><path class="cls-9" d="M861.22,491.83v8h.24a18.84,18.84,0,0,1,8-7.36,24.43,24.43,0,0,1,10.62-2.3,27.09,27.09,0,0,1,12.68,2.78,26.3,26.3,0,0,1,8.81,7.36A31.22,31.22,0,0,1,906.73,511a47.29,47.29,0,0,1,1.69,12.73,42.84,42.84,0,0,1-1.69,12.08A30.91,30.91,0,0,1,901.6,546a25.46,25.46,0,0,1-8.57,7.12,25.81,25.81,0,0,1-12,2.66,24.3,24.3,0,0,1-10.69-2.36,20.26,20.26,0,0,1-8-6.94h-.24V576.1H844.92V491.83Zm22.27,49.5a13.84,13.84,0,0,0,4.59-4.41,18.19,18.19,0,0,0,2.47-6.34,36.82,36.82,0,0,0,.73-7.36,34.21,34.21,0,0,0-.79-7.36,19.42,19.42,0,0,0-2.59-6.46,14.56,14.56,0,0,0-4.65-4.59,13,13,0,0,0-6.94-1.75,13.27,13.27,0,0,0-7.06,1.75,14,14,0,0,0-4.59,4.53,18.83,18.83,0,0,0-2.48,6.4,38.26,38.26,0,0,0-.72,7.48,34.77,34.77,0,0,0,.78,7.36,19.07,19.07,0,0,0,2.54,6.34,14.62,14.62,0,0,0,18.71,4.41Z" transform="translate(-112.51 -382.35)"/></svg>